<svg width="26" height="28" viewBox="0 0 26 28" fill="none" xmlns="http://www.w3.org/2000/svg">
<path id="Vector" d="M26 11.124C26 10.7016 25.7084 10.4391 25.1248 10.3362L17.2813 9.08649L13.7657 1.29545C13.5679 0.827406 13.3125 0.593506 13.0001 0.593506C12.6877 0.593506 12.4324 0.827406 12.2345 1.29545L8.71875 9.08649L0.874885 10.3362C0.291701 10.4391 0 10.7016 0 11.124C0 11.3638 0.130253 11.6378 0.390705 11.946L6.07828 18.0075L4.73454 26.5688C4.71369 26.7287 4.70334 26.8432 4.70334 26.9114C4.70334 27.1511 4.75796 27.3536 4.86731 27.5193C4.9766 27.6852 5.14056 27.7677 5.35942 27.7677C5.54703 27.7677 5.75527 27.6995 5.98442 27.5624L12.9999 23.521L20.0159 27.5624C20.235 27.6995 20.4433 27.7677 20.6407 27.7677C20.8497 27.7677 21.0082 27.6852 21.1175 27.5193C21.2266 27.3539 21.2812 27.1511 21.2812 26.9114C21.2812 26.7632 21.276 26.6491 21.2655 26.5688L19.9217 18.0075L25.5935 11.946C25.8648 11.6492 26 11.3751 26 11.124Z" fill="#FF9900"/>
</svg>
